<?xml version="1.0" standalone="no"?>
<!DOCTYPE svg PUBLIC "-//W3C//DTD SVG 20010904//EN"
 "http://www.w3.org/TR/2001/REC-SVG-20010904/DTD/svg10.dtd">
<svg version="1.0" xmlns="http://www.w3.org/2000/svg"
 width="843.000000pt" height="843.000000pt" viewBox="0 0 843.000000 843.000000"
 preserveAspectRatio="xMidYMid meet">
<metadata>
Created by potrace 1.14, written by Peter Selinger 2001-2017
</metadata>
<g transform="translate(0.000000,843.000000) scale(0.100000,-0.100000)"
fill="#000000" stroke="none">
<path d="M3576 7795 c-14 -7 -28 -10 -32 -7 -4 4 -4 1 0 -6 4 -7 2 -19 -4 -27
-10 -12 -10 -15 1 -15 25 -1 -13 -18 -54 -24 -21 -3 -46 -10 -55 -15 -9 -5
-20 -9 -25 -9 -4 -1 -29 -4 -55 -8 -26 -5 -50 -7 -54 -6 -9 2 -151 -72 -190
-99 -14 -11 -29 -19 -32 -19 -10 0 -111 -64 -114 -72 -2 -4 -9 -8 -16 -8 -11
0 -26 -10 -73 -50 -7 -6 -13 -8 -13 -5 0 3 -14 -10 -31 -30 -17 -19 -35 -35
-39 -35 -8 0 -57 -43 -128 -110 -17 -18 -29 -37 -25 -42 3 -7 1 -8 -5 -4 -7 4
-12 2 -12 -3 0 -6 -5 -11 -10 -11 -6 0 -21 -11 -34 -25 -13 -13 -26 -22 -29
-19 -3 3 -8 -4 -12 -15 -3 -12 -10 -21 -15 -21 -5 0 -30 -23 -57 -51 -26 -29
-53 -57 -60 -64 -7 -7 -9 -15 -6 -19 4 -3 2 -6 -4 -6 -5 0 -22 -11 -37 -25
-15 -14 -25 -25 -22 -25 3 0 -9 -15 -27 -33 -41 -43 -87 -98 -87 -104 0 -4
-67 -91 -80 -103 -9 -9 -40 -60 -40 -65 0 -3 -11 -18 -25 -33 -14 -15 -25 -32
-25 -38 0 -6 -7 -17 -15 -24 -9 -7 -13 -15 -11 -18 3 -3 -4 -17 -15 -33 -28
-39 -89 -176 -82 -183 4 -3 0 -6 -7 -6 -7 0 -11 -3 -7 -6 3 -3 -3 -26 -13 -50
-11 -24 -17 -44 -15 -44 3 0 -1 -15 -8 -33 -8 -17 -13 -40 -11 -50 1 -9 -1
-17 -5 -17 -6 0 -30 -76 -36 -110 0 -3 -6 -14 -11 -25 -6 -11 -10 -30 -9 -42
1 -13 -3 -23 -8 -23 -5 0 -7 -7 -3 -15 3 -8 0 -15 -6 -15 -6 0 -8 -3 -5 -6 3
-4 2 -15 -3 -25 -7 -12 -6 -19 3 -22 9 -4 9 -6 0 -6 -7 -1 -10 -8 -6 -18 4
-10 2 -14 -5 -9 -6 3 -13 2 -16 -3 -4 -5 -2 -12 4 -16 6 -4 5 -12 -5 -21 -17
-17 -21 -39 -5 -29 7 4 7 -3 0 -20 -6 -15 -7 -31 -4 -37 4 -7 2 -8 -4 -4 -14
9 -15 -3 -3 -24 6 -8 7 -19 3 -24 -6 -10 -8 -24 -16 -96 -2 -19 -11 -52 -20
-74 -9 -21 -16 -42 -16 -47 0 -5 -5 -9 -11 -9 -6 0 -9 -5 -7 -12 2 -6 -7 -22
-19 -34 -18 -18 -21 -29 -15 -41 8 -17 -9 -69 -20 -58 -2 3 -5 -8 -5 -23 -2
-55 -11 -120 -17 -131 -4 -6 -5 -11 -2 -11 3 0 1 -11 -4 -24 -6 -16 -5 -28 3
-36 9 -10 9 -11 0 -6 -9 5 -13 -3 -13 -28 0 -20 -1 -39 -2 -43 -11 -46 -20
-94 -23 -123 -3 -34 -8 -62 -21 -125 -4 -16 -7 -37 -8 -45 -1 -9 -6 -22 -11
-29 -5 -9 -4 -12 3 -7 6 3 4 -7 -4 -24 -9 -16 -12 -34 -9 -40 4 -6 3 -10 -2
-9 -4 1 -15 1 -23 0 -13 -1 -13 -2 0 -11 10 -6 11 -10 3 -10 -7 0 -13 -9 -13
-20 0 -11 -5 -20 -11 -20 -6 0 -9 -9 -6 -19 3 -12 -1 -22 -9 -25 -8 -3 -14
-12 -14 -20 0 -8 -14 -21 -30 -30 -17 -8 -27 -10 -24 -4 4 7 2 8 -4 4 -9 -5
-12 -155 -12 -569 l0 -562 26 -80 c38 -117 66 -185 76 -185 5 0 7 -4 3 -10 -3
-5 2 -26 10 -47 9 -21 18 -45 20 -53 5 -27 38 -90 47 -90 4 0 8 -6 8 -13 0
-12 31 -46 100 -108 19 -18 185 -75 240 -83 118 -16 160 -18 196 -5 49 16 41
15 92 24 23 4 42 10 42 14 0 4 30 8 68 10 88 4 108 6 162 22 25 7 49 12 54 10
13 -3 120 20 131 29 6 4 28 11 50 16 81 17 101 12 71 -19 -9 -9 -12 -28 -9
-58 4 -39 2 -47 -26 -73 -17 -17 -31 -36 -31 -43 0 -7 -5 -13 -12 -13 -6 0 -8
-3 -5 -7 10 -9 -59 -73 -80 -74 -34 -1 -53 -7 -68 -22 -8 -8 -20 -17 -26 -19
-6 -2 -11 -19 -12 -38 -2 -27 -6 -35 -20 -35 -10 0 -24 -7 -30 -16 -7 -9 -15
-17 -20 -17 -4 -1 -21 -9 -37 -17 -17 -9 -30 -12 -30 -8 0 5 -4 4 -8 -2 -16
-22 -61 -57 -75 -59 -8 -1 -23 -8 -33 -16 -11 -9 -15 -10 -10 -2 10 16 -4 15
-28 -3 -10 -8 -23 -12 -27 -9 -5 3 -9 0 -9 -7 0 -7 -3 -10 -6 -6 -4 3 -21 -1
-38 -10 -17 -10 -34 -16 -38 -15 -5 1 -8 -3 -8 -8 0 -5 -3 -9 -7 -8 -5 1 -28
-9 -53 -22 -25 -13 -48 -23 -52 -22 -5 1 -8 -3 -8 -8 0 -6 -9 -10 -20 -10 -10
0 -24 -8 -29 -17 -6 -10 -11 -15 -11 -10 0 4 -17 -2 -37 -13 -21 -11 -41 -20
-45 -20 -4 0 -17 -8 -28 -17 -11 -10 -25 -19 -30 -19 -6 -1 -15 -2 -21 -3 -5
0 -7 -5 -4 -11 4 -6 -1 -7 -10 -3 -10 3 -20 0 -25 -6 -4 -7 -13 -14 -21 -15
-8 -1 -40 -15 -71 -30 -32 -14 -61 -27 -65 -28 -5 -1 -28 -14 -52 -30 -25 -15
-51 -28 -58 -28 -7 0 -13 -3 -13 -8 0 -4 -10 -12 -22 -17 l-23 -10 -3 -862 -2
-863 2850 0 2850 0 0 1030 c0 817 -3 1030 -12 1031 -7 1 -33 3 -58 5 -25 1
-74 6 -110 10 -36 4 -84 7 -107 8 -24 1 -43 4 -43 7 0 3 -16 6 -35 7 -20 1
-40 4 -44 7 -5 3 -29 7 -52 10 -47 6 -128 20 -169 31 -14 3 -37 6 -52 7 -16 0
-28 4 -28 7 0 4 -6 7 -12 8 -7 0 -24 3 -38 6 -14 3 -35 8 -48 10 -12 3 -27 8
-33 12 -6 3 -27 9 -47 11 -20 3 -48 10 -62 15 -14 5 -26 9 -27 9 -2 0 -17 5
-35 10 -48 15 -71 20 -85 21 -7 1 -13 6 -13 11 0 6 -3 7 -7 4 -3 -4 -12 -2
-20 5 -7 6 -16 8 -19 5 -3 -3 -20 1 -39 8 -18 8 -35 11 -39 8 -3 -4 -6 -1 -6
5 0 6 -15 14 -32 17 -18 4 -51 13 -73 20 -22 6 -74 22 -115 35 -106 31 -122
39 -115 50 8 13 -14 42 -26 34 -5 -3 -7 -10 -4 -15 4 -5 -10 -9 -29 -9 -20 0
-36 3 -36 8 0 11 -93 51 -142 61 -65 13 -72 15 -80 26 -4 6 -11 10 -15 10 -44
3 -118 89 -106 123 3 7 -9 26 -26 43 -20 19 -31 39 -31 57 0 16 -3 32 -7 36
-8 7 -7 5 -18 91 -7 61 -7 136 0 143 2 3 -2 17 -10 33 -8 15 -15 48 -15 72 0
39 4 47 34 68 19 13 32 27 30 31 -3 4 4 8 15 8 11 0 23 5 26 10 8 13 276 7
297 -6 7 -5 36 -14 63 -20 28 -6 77 -19 110 -28 111 -32 163 -44 225 -52 81
-10 154 -11 195 -2 49 10 167 66 178 84 4 7 15 21 25 30 9 10 17 20 18 23 0 3
9 24 18 46 10 22 20 73 23 115 6 88 31 150 70 176 15 10 30 19 33 19 23 4 80
36 80 45 0 6 4 9 8 6 5 -3 14 12 22 32 7 20 17 40 22 43 13 8 12 87 -1 121 -5
15 -22 34 -36 44 -14 9 -25 22 -25 29 0 7 20 33 45 58 25 26 45 52 46 59 0 7
2 20 4 28 14 55 21 121 13 126 -4 3 -6 10 -3 15 4 5 -2 9 -11 9 -10 0 -14 3
-11 6 4 4 -2 14 -12 23 -15 14 -43 55 -47 71 0 3 -4 13 -9 23 -11 25 10 67 35
68 23 2 25 2 67 18 18 7 31 16 28 20 -2 5 6 14 18 20 40 22 67 78 71 144 3 63
-10 137 -27 148 -5 3 -8 9 -8 13 2 12 -28 61 -52 83 -14 13 -27 36 -30 53 -4
18 -13 30 -22 30 -8 0 -15 3 -15 8 0 4 -18 27 -40 52 -22 24 -40 48 -40 52 0
4 -7 8 -15 8 -8 0 -15 5 -15 10 0 6 -9 23 -20 38 -10 15 -21 38 -24 52 -3 14
-9 49 -15 79 -18 91 -14 165 14 231 41 98 42 126 5 310 -5 25 -12 63 -15 85
-21 158 -60 295 -117 409 -32 64 -106 184 -128 206 -3 3 -6 10 -7 15 -2 13
-141 155 -152 155 -12 0 -22 30 -15 41 10 16 12 59 3 64 -4 3 -6 14 -4 25 2
11 -1 20 -7 20 -6 0 -5 6 3 16 8 9 21 13 35 10 18 -5 24 0 36 32 16 40 17 154
3 187 -13 30 -37 44 -67 39 -30 -5 -63 21 -88 70 -12 24 -55 52 -92 62 -5 1
-9 2 -10 4 -2 1 -12 3 -22 5 -10 2 -22 7 -25 12 -3 4 -16 9 -27 11 -16 2 -23
-4 -28 -22 -6 -23 -26 -29 -42 -13 -4 4 -16 7 -26 7 -10 0 -18 5 -18 11 0 7
-12 10 -30 7 -18 -3 -31 0 -34 9 -4 9 -16 12 -36 8 -21 -4 -41 2 -70 20 -22
14 -44 25 -49 25 -5 0 -11 3 -13 8 -4 8 -86 50 -108 54 -8 2 -21 9 -28 16 -8
7 -18 10 -23 7 -5 -4 -9 -1 -9 5 0 6 -4 9 -9 6 -4 -3 -17 1 -27 8 -15 11 -22
12 -33 3 -12 -9 -13 -9 -7 1 6 11 -11 17 -36 13 -5 0 -8 3 -8 8 0 5 -19 12
-42 16 -24 4 -50 11 -58 15 -14 7 -40 12 -140 26 -74 10 -100 20 -100 40 0 8
-4 14 -10 14 -5 0 -10 6 -10 14 0 21 -18 29 -56 28 -18 -1 -36 3 -40 9 -4 8
-9 7 -15 -2 -7 -12 -9 -12 -9 0 0 11 -3 11 -15 1 -12 -10 -15 -10 -15 1 0 9
-3 10 -8 4 -12 -17 -35 -17 -29 0 4 8 2 15 -3 15 -6 0 -10 -5 -10 -11 0 -8 -4
-8 -12 -2 -7 6 -23 9 -35 8 -13 -1 -23 2 -23 7 0 5 -4 7 -9 3 -5 -3 -31 2 -58
11 -26 9 -58 16 -70 16 -13 0 -20 4 -17 9 7 12 -3 11 -28 -2 -15 -8 -19 -8
-14 0 4 6 0 11 -8 11 -9 0 -16 5 -16 10 0 6 -5 10 -11 10 -5 0 -7 -6 -4 -12 4
-7 0 -5 -8 4 -8 10 -17 15 -20 11 -4 -3 -7 -1 -7 7 0 10 -3 10 -15 0 -11 -9
-15 -9 -15 -1 0 7 -4 9 -10 6 -5 -3 -10 -1 -10 6 0 7 -10 9 -25 7 -14 -3 -25
-1 -25 6 0 6 -5 4 -10 -4 -6 -10 -10 -11 -10 -2 0 6 -8 12 -19 12 -10 0 -24 6
-30 14 -7 8 -25 13 -41 12 -16 -1 -31 1 -32 5 -6 14 -226 17 -252 4z"/>
</g>
</svg>
